<svg id="ロゴ" xmlns="http://www.w3.org/2000/svg" viewBox="0 0 507.74 85.51"><defs><style>.cls-1{fill:#ffffff;}</style></defs><title>navy_logo_B</title><path class="cls-1" d="M343.51,21.39V64.12l37,21.37,37-21.37V21.39L380.52,0ZM406.89,58,380.52,73.21,354.15,58V27.53L380.52,12.3l26.37,15.23Z"/><path class="cls-1" d="M10.52,17.56Q0,28.9,0,43.37,0,59.51,12.57,70.94t30.5,11.33a48.91,48.91,0,0,0,22.66-5.54V63a65.11,65.11,0,0,1-5.85,4,35,35,0,0,1-5.37,2.65,29,29,0,0,1-11.28,2q-12.85,0-21.7-8.2a26.32,26.32,0,0,1-8.85-20.11,27,27,0,0,1,8.85-20.41,30.19,30.19,0,0,1,21.64-8.39q11.65,0,22.56,8.29V9.22A45.85,45.85,0,0,0,44,3.68Q23.48,3.68,10.52,17.56Z"/><polygon class="cls-1" points="132.43 34.78 96.49 34.78 96.49 5.15 83.92 5.15 83.92 80.9 96.49 80.9 96.49 45.53 132.43 45.53 132.43 80.9 145.01 80.9 145.01 5.15 132.43 5.15 132.43 34.78"/><path class="cls-1" d="M288.45,41.21a20.29,20.29,0,0,0,5.07-13.83,20,20,0,0,0-8.09-16.59q-7.35-5.64-23.85-5.64H246.84V80.9h12.58v-31h2.26l23.8,31h15.38L275.07,48.62A23.05,23.05,0,0,0,288.45,41.21Zm-29-1.27v-24h4.48q17.37,0,17.37,11.63,0,12.42-17.86,12.42Z"/><rect class="cls-1" x="313.38" y="5.15" width="12.58" height="75.75"/><polygon class="cls-1" points="495.16 5.15 495.16 57.79 434.4 0 434.4 80.9 446.97 80.9 446.97 27.87 507.74 85.51 507.74 5.15 495.16 5.15"/><path class="cls-1" d="M155.42,80.9H169l9.28-18.4h35.67l8.75,18.4h13.76L196.65.39Zm28.07-29.14L196.44,26,208.8,51.76Z"/></svg>